<svg class="logo" viewBox="0 0 95 85" xmlns="http://www.w3.org/2000/svg"><path fill="#FFF200" d="M0 0h84.8v84.8H0z"></path><path fill="#003C71" d="M8.6 56.4V27.2h7.2c6.7 0 9.7 2.2 9.7 7.6 0 3-1.3 5.1-3.8 6.2v.1c3.3 1.2 4.5 3.7 4.5 7 0 6.7-4.3 8.4-10 8.4H8.6v-.1zm7.4-17c2.5 0 4.7-.9 4.7-4.1 0-3.1-2.3-3.7-4.7-3.7h-2.7v7.8H16zm.5 12.7c3.4 0 4.8-1.2 4.8-4.3 0-3.2-1.6-4.5-4.8-4.5h-3.2v8.8h3.2zm30.9-5.2c-.9 6.5-3.6 9.9-8.9 9.9-7 0-9.3-5.7-9.3-15.1 0-8.4 2.4-14.8 9.3-14.8 5.6 0 7.8 3.5 8.6 9.4l-4.5.4c-.6-3.7-1.9-5.5-4-5.5-3 0-4.5 3.1-4.5 10.5 0 8.1 1.3 10.8 4.5 10.8 2.3 0 3.7-2.1 4.3-6.1l4.5.5zm4.1 9.5V27.2h4.8v29.2h-4.8zm14.8 0V31.6h-6v-4.4h16.8v4.4h-6v24.8h-4.8z"></path><path fill="#FFF200" d="M89.426 3.253c.462 0 .84-.13.84-.625 0-.478-.408-.566-.826-.566h-.64v1.19h.626zm.885 2.15l-.77-1.554H88.8v1.554h-.71V1.454h1.304c.973 0 1.572.333 1.572 1.16 0 .48-.248.858-.742 1.046l.899 1.743h-.812zM92.126 3.5c0-1.584-.99-2.86-2.716-2.86-1.743 0-2.744 1.276-2.744 2.86 0 1.627 1 2.862 2.744 2.862 1.727 0 2.716-1.235 2.716-2.862zM86 3.5C86 1.54 87.288 0 89.41 0c2.12 0 3.398 1.54 3.398 3.5 0 1.916-1.278 3.5-3.398 3.5C87.288 7 86 5.416 86 3.5z"></path></svg>